<svg xmlns="http://www.w3.org/2000/svg" id="Layer_2" data-name="Layer 2" viewBox="0 0 1005 296.95"><defs><style>.cls-1{fill:#4c86a0;stroke:#4c86a0;stroke-miterlimit:10;stroke-width:2px;}.cls-2{fill:#2d2a26;}.cls-3{fill:#61b0bc;}</style></defs><g id="REHABCENTER"><path class="cls-1" d="M276.52 485.19H264L224.08 437h-6.21v48.17H207.56V384.14h20.86q18.47.0 27.66 6.84t9.19 20.7q0 11.81-7.87 18.57T235.72 437zm-58.65-93v37.34h10.4q14.43.0 20.13-4.1t5.7-14q0-10.43-5.89-14.84t-19.94-4.42z" transform="translate(-206.56 -193.72)"/><path class="cls-1" d="M291.42 485.19V384.14h56.24v8.63H301.74v31.61h45.92V433H301.74v43.56h45.92v8.62z" transform="translate(-206.56 -193.72)"/><path class="cls-1" d="M373 485.19V384.14h10.32v41H445.1v-41h10.32V485.19H445.1V433H383.27v52.18z" transform="translate(-206.56 -193.72)"/><path class="cls-1" d="M468.14 485.19l49.88-105 47.79 105.05H554.56L540.06 451h-46.4l-15.05 34.23zm29-42.1h39.56l-19.39-44z" transform="translate(-206.56 -193.72)"/><path class="cls-1" d="M578.54 485.19V384.14h19.7q13 0 18.7 1.11a26.41 26.41.0 019.77 3.79 25.89 25.89.0 018.61 9.29 25.12 25.12.0 012.95 12.11 20.72 20.72.0 01-4.73 13.74 22.59 22.59.0 01-13 7.45q10.93 1.46 17.14 7.8a22.08 22.08.0 016.21 16.08 31.45 31.45.0 01-2.41 12.64 25.16 25.16.0 01-7.29 9.52 28.89 28.89.0 01-11.95 5.83q-7 1.69-23.81 1.69zm10.31-56.11h12.88q14.21.0 20.06-4.14t5.85-13.81q0-10.42-5.7-14.7t-20.21-4.28H588.85zm0 48.18H602q11.25.0 15.52-.83a19.24 19.24.0 007.21-2.83 17.58 17.58.0 005.82-6.87 20.75 20.75.0 002.17-9.35 22.72 22.72.0 00-2.4-10.67 15.91 15.91.0 00-6.67-6.86 23.26 23.26.0 00-7-2.18 84.48 84.48.0 00-12.45-.65H588.85z" transform="translate(-206.56 -193.72)"/><path class="cls-1" d="M757.66 402.64a62.47 62.47.0 00-17.3-9.59 55.76 55.76.0 00-18.62-3.11q-22 0-35.8 12.43t-13.77 32.37a45.93 45.93.0 003.38 18A39.72 39.72.0 00685.83 467a47.39 47.39.0 0015.63 9.25 55.17 55.17.0 0018.89 3.18 62.35 62.35.0 0019.08-3A65 65 0 00757 467.66v10.77a78.84 78.84.0 01-17.72 7 73 73 0 01-18.51 2.45A70.73 70.73.0 01697.23 484a57.56 57.56.0 01-19.32-11 48.69 48.69.0 01-12.56-17 51.8 51.8.0 01-4.27-21.19 51.14 51.14.0 014.38-21.12 48 48 0 0112.61-16.91 57.77 57.77.0 0119.28-10.91 70.79 70.79.0 0123.46-3.93A73 73 0 01741 384.52a56.21 56.21.0 0116.87 8z" transform="translate(-206.56 -193.72)"/><path class="cls-1" d="M780 485.19V384.14h56.24v8.63H790.32v31.61h45.93V433H790.32v43.56h45.93v8.62z" transform="translate(-206.56 -193.72)"/><path class="cls-1" d="M861.54 485.19V379.86L942 464.42V384.14h9.62v104l-80.37-84.69v81.72z" transform="translate(-206.56 -193.72)"/><path class="cls-1" d="M1000.1 485.19V392.77H968.83v-8.63h72.93v8.63h-31.35v92.42z" transform="translate(-206.56 -193.72)"/><path class="cls-1" d="M1058.9 485.19V384.14h56.24v8.63h-45.92v31.61h45.92V433h-45.92v43.56h45.92v8.62z" transform="translate(-206.56 -193.72)"/><path class="cls-1" d="M1209.4 485.19h-12.57L1157 437h-6.21v48.17h-10.31V384.14h20.86q18.46.0 27.66 6.84t9.19 20.7q0 11.81-7.87 18.57T1168.6 437zm-58.65-93v37.34h10.4q14.43.0 20.13-4.1t5.7-14q0-10.43-5.89-14.84t-19.94-4.42z" transform="translate(-206.56 -193.72)"/></g><g id="Layer_4" data-name="Layer 4"><path class="cls-2" d="M207.62 352.93V226.57h70.51V244h-50v31.67h50v18h-50v40.82h50v18.39z" transform="translate(-206.56 -193.72)"/><path class="cls-2" d="M301.7 352.93V221.56L382 298.81q3.29 3.29 6.65 7t7.08 8.37v-87.6h19V357.85l-81.9-78.63q-3.28-3.2-6.35-6.73t-5.82-7.43v87.87z" transform="translate(-206.56 -193.72)"/><path class="cls-2" d="M443.67 352.93V226.57h20.54v52.3l45.4-52.3h25.12l-50.06 56.19 56 70.17H514.19l-50-64.56v64.56z" transform="translate(-206.56 -193.72)"/><path class="cls-2" d="M682.83 290a64.22 64.22.0 01-19.76 46.86 69.19 69.19.0 01-22 14.42 67.49 67.49.0 01-25.72 5 68.17 68.17.0 01-26-5.05 66.85 66.85.0 01-21.88-14.37 64.18 64.18.0 01-14.67-21.32A65.67 65.67.0 01567.44 243a66.92 66.92.0 0121.92-14.33 70.71 70.71.0 0151.83.0 66.95 66.95.0 0136.6 35.95A65.18 65.18.0 01682.83 290zM581.19 204a9.85 9.85.0 013.11-7.23 10 10 0 017.33-3.08A10.26 10.26.0 01601.9 204a10.48 10.48.0 01-2.89 7.59 9.83 9.83.0 01-7.38 3 10.09 10.09.0 01-7.42-3A10.26 10.26.0 01581.19 204zm47.42.0a9.84 9.84.0 013.1-7.23 10.05 10.05.0 017.34-3.08A10.26 10.26.0 01649.32 204a10.48 10.48.0 01-2.89 7.59 9.83 9.83.0 01-7.38 3 10.07 10.07.0 01-7.42-3A10.22 10.22.0 01628.61 204z" transform="translate(-206.56 -193.72)"/><path class="cls-2" d="M725.64 296.22v56.71H706.4V226.57h31.07q13.8.0 20.32 1.51a31.56 31.56.0 0111.35 5 29.51 29.51.0 019.32 11.87 39.46 39.46.0 013.37 16.44 40.31 40.31.0 01-3.37 16.57 28.53 28.53.0 01-9.32 11.91 30.67 30.67.0 01-11.35 4.92q-6.51 1.49-20.32 1.47H725.64zm1.3-16.83h5.26q17.09.0 22.79-3.71t5.69-13.12q0-10.09-6.08-14.24t-22.4-4.14h-5.26z" transform="translate(-206.56 -193.72)"/><path class="cls-2" d="M800.82 352.93V226.57h20.54V352.93z" transform="translate(-206.56 -193.72)"/><path class="cls-2" d="M850.88 352.93V221.56l80.26 77.25q3.29 3.29 6.65 7t7.08 8.37v-87.6h19V357.85L882 279.22q-3.29-3.2-6.35-6.73t-5.82-7.43v87.87z" transform="translate(-206.56 -193.72)"/><path class="cls-2" d="M1062.85 288.2h50.06c0 .86.0 2.07.09 3.62q.26 6.14.25 8.29.0 26.67-15.27 41.42t-43.07 14.76a78.4 78.4.0 01-27.71-4.57 58.74 58.74.0 01-21.31-13.81 62.58 62.58.0 01-13.77-21.49A72.42 72.42.0 01987.33 290a69.93 69.93.0 014.88-26.41 61.15 61.15.0 0114.45-21.32 62.26 62.26.0 0121.67-13.81 73.92 73.92.0 0126.58-4.75 63 63 0 0126.71 5.44 59.47 59.47.0 0121 16.66l-15 11.3a41.59 41.59.0 00-14.41-11 43.09 43.09.0 00-18-3.63q-20.55.0-33.54 13.16t-13 34.22q0 21.42 13 34.74t33.71 13.34q17.61.0 27.7-8.2t10.1-22.35v-1.82h-30.38z" transform="translate(-206.56 -193.72)"/><path class="cls-2" d="M1127.58 327.64 1144 320a22.63 22.63.0 008.54 12.91q6.23 4.44 15.89 4.44 9.13.0 14.54-5.09t5.39-13.64q0-11.13-18.47-19.85c-1.72-.86-3-1.5-4-1.9q-20.88-10.17-27.83-18.42t-7-20.16q0-15.45 10.49-25t27.49-9.58q14 0 23.39 5.4a28.42 28.42.0 0113 15.49l-16 8.28a26.81 26.81.0 00-8.33-8.71 19.59 19.59.0 00-10.4-2.76q-8.29.0-13.17 4.31a14.68 14.68.0 00-4.87 11.57q0 11.38 21.4 21.23l2.59 1.21q18.74 8.63 25.72 16.87t7 20.58q0 18-11.3 28.53t-30.56 10.57q-16.14.0-26.45-7.42T1127.58 327.64z" transform="translate(-206.56 -193.72)"/><path class="cls-3" d="M625.42 299.5v34.37H605.18V299.5H569.54v-19h35.64V246.15h20.24v34.37h35.64v19z" transform="translate(-206.56 -193.72)"/></g></svg>