<?xml version="1.0" encoding="UTF-8"?>
<svg id="Layer_2" data-name="Layer 2" xmlns="http://www.w3.org/2000/svg" xmlns:xlink="http://www.w3.org/1999/xlink" viewBox="0 0 1385.27 377.29">
  <defs>
    <style>
      .cls-1 {
        fill: url(#linear-gradient);
      }

      .cls-2 {
        fill: #1e1d1c;
      }
    </style>
    <linearGradient id="linear-gradient" x1="0" y1="307.04" x2="1385.27" y2="307.04" gradientUnits="userSpaceOnUse">
      <stop offset="0" stop-color="#1e9cd7" stop-opacity=".8"/>
      <stop offset=".28" stop-color="#1e9cd7" stop-opacity=".64"/>
      <stop offset=".57" stop-color="#1e9cd7" stop-opacity=".51"/>
      <stop offset=".81" stop-color="#1e9cd7" stop-opacity=".43"/>
      <stop offset="1" stop-color="#1e9cd7" stop-opacity=".4"/>
    </linearGradient>
  </defs>
  <g id="Layer_1-2" data-name="Layer 1">
    <g>
      <path class="cls-2" d="M0,46.66h114.84v24.16H30.4v46.66h79.37v24.16H30.4v49.5h84.44v24.16H0V46.66Z"/>
      <path class="cls-2" d="M288.3,46.66v168.63h-23.16l-92.64-118.18v118.18h-28.95V46.66h23.16l92.4,117.94V46.66h29.19Z"/>
      <path class="cls-2" d="M436.67,215.28l-79.86-78.86v78.86h-31.12V46.66h31.12v75.55l76.72-75.55h37.4l-83.47,81,87.33,87.63h-38.12Z"/>
      <path class="cls-2" d="M512.78,206.88c-12.3-7.03-21.8-17.05-28.47-30.08-6.68-13.03-10.01-28.38-10.01-46.06s3.29-32.8,9.89-45.83c6.59-13.03,16.04-23.01,28.35-29.96,12.31-6.94,26.82-10.42,43.55-10.42s31.24,3.48,43.55,10.42c12.3,6.95,21.71,16.94,28.23,29.96,6.52,13.03,9.77,28.3,9.77,45.83s-3.3,33.04-9.89,46.06c-6.6,13.03-16,23.05-28.23,30.08-12.23,7.03-26.7,10.54-43.43,10.54s-31-3.51-43.3-10.54ZM593.24,176.92c8.84-10.74,13.27-26.13,13.27-46.18s-4.42-35.17-13.27-45.83c-8.85-10.66-21.23-15.99-37.15-15.99s-28.31,5.29-37.15,15.87c-8.85,10.58-13.27,25.9-13.27,45.95s4.42,35.45,13.27,46.18c8.84,10.74,21.23,16.11,37.15,16.11s28.3-5.37,37.15-16.11ZM548.12,0v27.24h-28.95V0h28.95ZM592.76,0v27.24h-28.95V0h28.95Z"/>
      <path class="cls-2" d="M669.47,46.66h74.55c18.49,0,32.89,4.38,43.18,13.14,10.29,8.76,15.44,20.72,15.44,35.88s-5.19,27.16-15.56,36c-10.37,8.85-24.73,13.26-43.06,13.26h-43.43v70.34h-31.12V46.66ZM740.4,121.26c10.78,0,18.94-2.17,24.49-6.51,5.55-4.34,8.32-10.62,8.32-18.83s-2.74-14.72-8.2-19.06c-5.47-4.34-13.67-6.51-24.61-6.51h-39.81v50.92h39.81Z"/>
      <path class="cls-2" d="M830.15,46.66h31.12v168.63h-31.12V46.66Z"/>
      <path class="cls-2" d="M1043.17,46.66v168.63h-23.16l-92.64-118.18v118.18h-28.95V46.66h23.16l92.4,117.94V46.66h29.19Z"/>
      <path class="cls-2" d="M1223.87,124.1v81c-7.88,3.79-17.37,6.79-28.47,9-11.1,2.21-22.44,3.32-34.02,3.32-17.7,0-33.05-3.47-46.08-10.42-13.03-6.95-23-16.89-29.91-29.84-6.92-12.95-10.38-28.42-10.38-46.42s3.46-33,10.38-45.95c6.91-12.95,16.77-22.89,29.55-29.84,12.79-6.94,27.78-10.42,45-10.42,12.06,0,23.36,1.74,33.89,5.21,10.53,3.48,19.34,8.37,26.42,14.69l-10.62,22.26c-8.05-6.16-15.93-10.57-23.65-13.26-7.72-2.68-16.16-4.02-25.33-4.02-17.7,0-31.09,5.21-40.17,15.63-9.09,10.42-13.63,25.66-13.63,45.71s4.66,36.28,14,46.78c9.33,10.5,23.24,15.75,41.74,15.75,11.25,0,22.35-1.5,33.29-4.5v-42.63h-37.15v-22.03h65.14Z"/>
      <path class="cls-2" d="M1279.96,212.21c-11.5-3.47-21.27-8.45-29.31-14.92l10.62-22.26c8.36,6.16,17.09,10.7,26.18,13.62,9.08,2.92,19.02,4.38,29.79,4.38,11.9,0,21.11-2.05,27.62-6.16,6.52-4.11,9.77-9.86,9.77-17.29,0-6.32-3.02-11.17-9.05-14.57-6.03-3.39-15.96-6.59-29.79-9.59-21.55-4.58-37.24-10.5-47.04-17.76-9.81-7.26-14.72-17.84-14.72-31.74,0-9.95,2.74-18.79,8.2-26.52,5.47-7.74,13.23-13.82,23.28-18.24,10.05-4.42,21.67-6.63,34.86-6.63,12.06,0,23.52,1.78,34.38,5.33,10.86,3.55,19.74,8.49,26.66,14.8l-10.37,22.26c-15.28-12-32.17-18-50.66-18-11.1,0-19.87,2.25-26.3,6.75-6.43,4.5-9.65,10.62-9.65,18.35,0,6.63,2.85,11.69,8.57,15.16,5.71,3.48,15.48,6.71,29.31,9.71,14.31,3.32,25.97,6.91,34.98,10.78,9.01,3.87,15.92,8.84,20.75,14.92,4.82,6.08,7.24,13.7,7.24,22.86,0,10.11-2.74,18.91-8.2,26.41-5.47,7.5-13.35,13.3-23.65,17.41-10.29,4.1-22.43,6.16-36.43,6.16-13.19,0-25.54-1.74-37.04-5.21Z"/>
    </g>
    <path class="cls-1" d="M105.76,375.74h-12.35l-17.18-45.74c-2.19-6.18-5.21-10.32-9.07-12.45-3.86-2.12-9.45-3.19-16.79-3.19H11.97v61.37H0v-137.41h53.07c14.28,0,25.35,3.25,33.2,9.75,7.85,6.5,11.77,15.8,11.77,27.89,0,8.88-2.35,16.34-7.05,22.39-4.7,6.05-11.42,10.3-20.17,12.74,3.99.65,7.4,2.32,10.23,5.02,2.83,2.7,5.21,6.69,7.14,11.97l17.56,47.67ZM52.3,303.95c22.52,0,33.77-9.39,33.77-28.18s-11.26-27.21-33.77-27.21H11.77v55.39h40.53ZM132.78,238.33h84.72v10.23h-72.95v52.11h69.09v10.61h-69.09v54.23h72.95v10.23h-84.72v-137.41ZM357.22,238.33v137.41h-11.97v-64.46h-87.62v64.46h-11.97v-137.41h11.97v62.34h87.62v-62.34h11.97ZM482.28,339.07h-74.11l-15.82,36.67h-12.35l59.83-137.41h10.81l59.63,137.41h-12.35l-15.63-36.67ZM477.65,328.65l-32.42-75.85-32.61,75.85h65.04ZM626.63,316.98c4.37,5.73,6.56,12.9,6.56,21.52,0,11.97-3.93,21.17-11.77,27.6-7.85,6.43-18.98,9.65-33.39,9.65h-55v-137.41h53.07c14.02,0,24.83,3.12,32.42,9.36,7.59,6.24,11.39,15.15,11.39,26.73,0,7.46-1.9,13.83-5.69,19.11-3.8,5.28-9.1,9.2-15.92,11.77,7.85,2.06,13.96,5.95,18.33,11.68ZM544.81,300.67h39.57c11.06,0,19.42-2.25,25.09-6.75,5.66-4.5,8.49-11.06,8.49-19.69,0-17.11-11.19-25.67-33.58-25.67h-39.57v52.11ZM612.84,358.95c5.47-4.37,8.2-11.06,8.2-20.07,0-18.4-11.26-27.6-33.77-27.6h-42.46v54.23h42.46c11.58,0,20.1-2.19,25.57-6.56ZM687.42,368.89c-9.39-5.6-16.6-13.7-21.61-24.32-5.02-10.62-7.53-23.19-7.53-37.73s2.51-26.89,7.53-37.44c5.02-10.55,12.22-18.62,21.61-24.22,9.39-5.6,20.46-8.4,33.2-8.4,9.52,0,18.24,1.51,26.15,4.54,7.91,3.02,14.76,7.5,20.55,13.41l-5.02,9.46c-6.56-5.92-13.12-10.19-19.69-12.83-6.56-2.64-13.9-3.96-22-3.96-15.82,0-28.11,5.18-36.86,15.54-8.75,10.36-13.12,24.99-13.12,43.9s4.34,33.77,13.03,44.19c8.69,10.42,21,15.63,36.96,15.63,8.1,0,15.44-1.32,22-3.96,6.56-2.64,13.12-6.92,19.69-12.83l5.02,9.46c-5.79,5.92-12.64,10.39-20.55,13.41-7.91,3.02-16.63,4.54-26.15,4.54-12.74,0-23.81-2.8-33.2-8.39ZM795.49,238.33h84.73v10.23h-72.95v52.11h69.09v10.61h-69.09v54.23h72.95v10.23h-84.73v-137.41ZM1016.08,238.33v137.41h-9.26l-87.23-117.14v117.14h-11.19v-137.41h9.46l87.04,117.15v-117.15h11.19ZM1085.36,248.75h-49.21v-10.42h110.39v10.42h-49.21v126.99h-11.97v-126.99ZM1166.61,238.33h84.73v10.23h-72.95v52.11h69.09v10.61h-69.09v54.23h72.95v10.23h-84.73v-137.41ZM1385.27,375.74h-12.35l-17.18-45.74c-2.19-6.18-5.21-10.32-9.07-12.45-3.86-2.12-9.46-3.19-16.79-3.19h-38.4v61.37h-11.97v-137.41h53.07c14.28,0,25.35,3.25,33.2,9.75,7.85,6.5,11.77,15.8,11.77,27.89,0,8.88-2.35,16.34-7.05,22.39-4.7,6.05-11.42,10.3-20.17,12.74,3.99.65,7.4,2.32,10.23,5.02,2.83,2.7,5.21,6.69,7.14,11.97l17.56,47.67ZM1331.81,303.95c22.51,0,33.77-9.39,33.77-28.18s-11.26-27.21-33.77-27.21h-40.53v55.39h40.53Z"/>
  </g>
</svg>